<svg width="294" height="278" viewBox="0 0 294 278" fill="none" xmlns="http://www.w3.org/2000/svg">
<path d="M254.43 174.473C279.822 189.626 285.678 200.213 285.432 203.612C285.432 212.543 284.148 221.219 282.564 228.381M254.43 174.473C239.077 182.05 218.508 180.544 210.142 178.844C206.009 167.771 206.944 149.948 207.928 142.42C215.605 140.672 226.381 140.43 230.81 140.528M254.43 174.473C249.814 166.311 239.967 150.612 230.81 140.528M278.051 243.679C256.792 243.679 257.752 243.679 251.297 243.679L249.263 232.679L246.139 227.545L242.455 223.145L235.086 218.012L229.929 215.812L221.823 215.079H216.665L207.086 219.479L198.244 225.345L194.56 231.212L191.689 241.493M278.051 243.679C282.775 243.679 285.924 238.822 286.908 236.394C288.68 231.732 287.646 229.109 286.908 228.381H283.956H282.564M278.051 243.679C279.254 240.709 281.047 235.24 282.564 228.381M191.689 241.493H94.3496L89.9285 230.479L86.9812 225.345L83.297 221.679L80.3496 219.479L75.9285 217.279L71.5075 215.812L67.8233 215.079H64.1391H61.1917L56.0338 216.545L52.3496 218.012L46.4549 221.679L42.7706 225.345L37.6128 233.412L35.4022 241.493H25.6098H22.6573M191.689 241.493L195.38 159.904M22.6573 241.493C12.6187 243.824 8.63281 241.493 7.89468 240.036C7.89468 233.626 8.63281 229.109 8.63281 230.566C15.7189 230.566 20.0961 230.566 21.3989 230.566M22.6573 241.493C21.9879 237.86 21.5891 234.187 21.3989 230.566M25.6098 194.142C22.9033 194.142 16.3094 193.997 11.5853 193.414C6.8613 192.831 7.64863 185.401 8.63281 181.758C12.7663 180.593 15.7681 180.301 16.7522 180.301H92.0416H167.331M25.6098 194.142C23.6142 200.445 20.5827 215.022 21.3989 230.566M25.6098 194.142L179.141 193.414C183.275 189.917 183.816 184.186 183.57 181.758C180.027 180.593 171.268 180.301 167.331 180.301M167.331 180.301C183.275 178.553 192.673 165.975 195.38 159.904M195.38 159.904C196.561 141.255 198.332 135.621 199.071 135.136L223.429 133.679C225.749 135.333 228.253 137.711 230.81 140.528" stroke="#FAF2E9" stroke-width="12"/>
<path d="M99.8862 178.679C74.9371 166.861 61.6828 143.224 61.6828 133.622C55.4456 129.486 53.8862 124.512 53.8862 122.542C56.3811 118.997 65.841 115.156 70.2591 113.679" stroke="#FAF2E9" stroke-width="12"/>
<path d="M59.8862 132.25C77.1333 135.222 128.032 138.441 151.325 139.679C182.251 139.679 209.311 133.241 218.976 130.022C222.544 126.456 224.923 119.622 223.436 118.136L213.772 113.679" stroke="#FAF2E9" stroke-width="12"/>
<path d="M193.632 133.244C198.516 128.04 204.376 115.698 188.748 107.966C173.119 100.234 164.328 99.2921 161.886 99.7877V107.966C167.747 117.482 173.553 119.861 175.724 119.861L186.306 124.322V130.27V133.244V140.679" stroke="#FAF2E9" stroke-width="12"/>
<path d="M111.639 102.926C106.163 103.676 92.9701 107.276 84.0092 115.677C75.0483 124.078 76.7907 130.678 78.782 132.928L54.8862 128.428V122.427L75.0483 106.676C90.5806 97.0756 100.935 92.6753 104.171 91.6752C110.145 86.8749 132.05 82.6746 142.255 81.1744M111.639 102.926C112.137 104.676 113.73 108.626 116.119 110.427M111.639 102.926C115.124 100.176 124.483 94.8254 134.041 95.4255C143.599 96.0255 143.5 86.1748 142.255 81.1744M116.119 110.427C119.106 112.677 125.827 113.427 128.814 115.677C131.801 117.927 134.788 123.928 134.041 128.428C133.444 132.028 130.307 137.429 128.814 139.679M116.119 110.427L111.639 112.677C108.154 116.177 101.184 125.578 101.184 135.178L128.814 139.679M128.814 139.679H157.19C154.203 123.478 145.989 114.927 142.255 112.677C135.684 107.876 139.517 106.676 142.255 106.676H154.95C160.326 101.876 163.662 99.6758 164.657 99.1758C165.155 96.6756 164.359 90.6251 157.19 86.4248M142.255 81.1744C144.247 81.1744 150.021 82.2245 157.19 86.4248M157.19 86.4248C151.714 82.6746 144.047 75.7741 157.19 78.1742C175.709 80.5744 177.85 84.6747 176.605 86.4248V91.6752C179.592 91.6752 186.761 93.1753 191.54 99.1758M191.54 99.1758C196.319 105.176 196.519 109.176 196.021 110.427L199.008 122.427L196.021 128.428L199.008 135.178L210.209 132.928L223.65 122.427C224.397 121.927 223.8 119.877 215.436 115.677C204.982 110.427 229.624 110.427 199.008 106.676L191.54 99.1758Z" stroke="#FAF2E9" stroke-width="12"/>
<path d="M65.8862 215.679C82.0676 215.679 94.8862 228.377 94.8862 243.679C94.8862 258.98 82.0676 271.679 65.8862 271.679C49.7048 271.679 36.8862 258.98 36.8862 243.679C36.8862 228.377 49.7048 215.679 65.8862 215.679Z" stroke="#FAF2E9" stroke-width="12"/>
<path d="M221.386 215.679C237.925 215.679 250.886 228.456 250.886 243.679C250.886 258.901 237.925 271.679 221.386 271.679C204.847 271.679 191.886 258.901 191.886 243.679C191.886 228.456 204.847 215.679 221.386 215.679Z" stroke="#FAF2E9" stroke-width="12"/>
<path d="M75.5535 119.691L29.2287 3.2121" stroke="#FAF2E9" stroke-width="12"/>
<path d="M93.0565 107.88L4.79937 26.1091" stroke="#FAF2E9" stroke-width="12"/>
</svg>
