<svg width="210" height="209" viewBox="0 0 210 209" fill="none" xmlns="http://www.w3.org/2000/svg">
<g clip-path="url(#clip0_41_2)">
<path d="M182.028 130.975C200.302 142.46 204.517 150.484 204.34 153.061C204.34 159.83 203.416 166.407 202.276 171.835M182.028 130.975C170.978 136.717 156.174 135.576 150.154 134.288C147.179 125.894 147.852 112.385 148.56 106.679C154.085 105.354 161.841 105.17 165.028 105.244M182.028 130.975C178.706 124.788 171.619 112.888 165.028 105.244M202.276 171.835H203.277H205.402C205.934 172.387 206.677 174.374 205.402 177.909C204.694 179.75 202.427 183.43 199.027 183.43M202.276 171.835C201.183 177.034 199.894 181.179 199.027 183.43M165.028 105.244C163.188 103.109 161.386 101.306 159.716 100.053L142.186 101.157C141.655 101.525 140.38 105.795 139.529 119.931M199.027 183.43C183.728 183.43 184.418 183.43 179.773 183.43L178.309 175.093L176.061 171.202L173.409 167.867L168.106 163.976L164.394 162.308L158.561 161.752H154.848L147.955 165.087L141.591 169.534L138.939 173.981L136.873 181.774M136.873 181.774H66.8182L63.6364 173.425L61.5152 169.534L58.8636 166.755L56.7424 165.087L53.5606 163.42L50.3788 162.308L47.7273 161.752H45.0758H42.9545L39.2424 162.864L36.5909 163.976L32.3485 166.755L29.697 169.534L25.9849 175.648L24.3939 181.774H17.3463H15.2215M136.873 181.774L139.529 119.931M15.2215 181.774C7.99672 183.54 5.12807 181.774 4.59684 180.67C4.59684 175.811 5.12807 172.387 5.12807 173.492C10.2279 173.492 13.3782 173.492 14.3158 173.492M15.2215 181.774C14.7397 179.02 14.4527 176.235 14.3158 173.492M139.529 119.931C137.582 124.532 130.817 134.066 119.343 135.392M14.3158 173.492C13.7284 161.709 15.9102 150.66 17.3463 145.883M17.3463 145.883C15.3985 145.883 10.6528 145.773 7.25299 145.33C3.85312 144.889 4.41976 139.257 5.12807 136.495C8.10296 135.613 10.2633 135.392 10.9717 135.392H65.1571H119.343M17.3463 145.883L127.842 145.33C130.817 142.68 131.207 138.336 131.029 136.495C128.48 135.613 122.175 135.392 119.343 135.392" stroke="#F85F73" stroke-width="9"/>
<path d="M69.4697 134.516C52.5 125.623 43.4849 107.836 43.4849 100.61C39.2424 97.4968 38.1818 93.754 38.1818 92.2718C39.8788 89.6037 46.3132 86.7133 49.3182 85.6016" stroke="#F85F73" stroke-width="9"/>
<path d="M42.4243 99.4978C54.7273 101.721 91.0353 104.13 107.652 105.056C129.712 105.056 149.015 100.239 155.909 97.8303C158.455 95.1622 160.152 90.0484 159.091 88.9367L152.197 85.6016" stroke="#F85F73" stroke-width="9"/>
<path d="M137.879 100.053C141.061 96.1618 144.879 86.9347 134.697 81.1539C124.515 75.373 118.788 74.669 117.197 75.0395V81.1539C121.015 88.2688 124.798 90.0475 126.212 90.0475L133.106 93.3826V97.8294V100.053V105.611" stroke="#F85F73" stroke-width="9"/>
<path d="M79.5455 77.263C75.6565 77.8189 66.2879 80.487 59.9243 86.7125C53.5606 92.938 54.798 97.8295 56.2121 99.4971L39.2424 96.162V91.7152L53.5606 80.0423C64.5909 72.9274 71.9444 69.6664 74.2424 68.9253C78.4849 65.3678 94.0404 62.2551 101.288 61.1434M79.5455 77.263C79.899 78.5601 81.0303 81.4875 82.7273 82.8215M79.5455 77.263C82.0202 75.225 88.6667 71.2598 95.4546 71.7045C102.242 72.1492 102.172 64.849 101.288 61.1434M101.288 61.1434C102.702 61.1434 106.803 61.9215 111.894 65.0343M82.7273 82.8215C84.8485 84.4891 89.6212 85.045 91.7424 86.7125C93.8636 88.3801 95.9849 92.8269 95.4546 96.162C95.0303 98.8301 92.803 102.832 91.7424 104.5M82.7273 82.8215L79.5455 84.4891C77.0708 87.083 72.1212 94.0497 72.1212 101.165L91.7424 104.5M91.7424 104.5H111.894C109.773 92.4934 103.939 86.1567 101.288 84.4891C96.6212 80.9317 99.3435 80.0423 101.288 80.0423H110.303C114.121 76.4848 116.49 74.8543 117.197 74.4838C117.55 72.6309 116.985 68.1471 111.894 65.0343M111.894 65.0343C108.005 62.2551 102.561 57.1412 111.894 58.92C125.045 60.6987 126.565 63.7373 125.682 65.0343V68.9253C127.803 68.9253 132.894 70.037 136.288 74.4838M136.288 74.4838C139.682 78.9306 139.823 81.8952 139.47 82.8215L141.591 91.7152L139.47 96.162L141.591 101.165L149.545 99.4971L159.091 91.7152C159.621 91.3446 159.197 89.8253 153.258 86.7125C145.833 82.8215 163.333 82.8215 141.591 80.0423L136.288 74.4838Z" stroke="#F85F73" stroke-width="9"/>
<path d="M45.6061 205.109C57.0283 205.109 66.2879 195.404 66.2879 183.431C66.2879 171.459 57.0283 161.753 45.6061 161.753C34.1838 161.753 24.9243 171.459 24.9243 183.431C24.9243 195.404 34.1838 205.109 45.6061 205.109Z" stroke="#F85F73" stroke-width="9"/>
<path d="M159.091 205.109C170.513 205.109 179.773 195.404 179.773 183.431C179.773 171.459 170.513 161.753 159.091 161.753C147.669 161.753 138.409 171.459 138.409 183.431C138.409 195.404 147.669 205.109 159.091 205.109Z" stroke="#F85F73" stroke-width="9"/>
<path d="M54.0909 90.0483L21.2121 4.44727" stroke="#F85F73" stroke-width="9" stroke-linecap="round"/>
<path d="M66.8182 81.154L4.24243 21.1221" stroke="#F85F73" stroke-width="9" stroke-linecap="round"/>
</g>
<defs>
<clipPath id="clip0_41_2">
<rect width="210" height="209" fill="white"/>
</clipPath>
</defs>
</svg>
