<svg width="247" height="251" viewBox="0 0 247 251" fill="none" xmlns="http://www.w3.org/2000/svg">
<ellipse cx="123.5" cy="125.5" rx="123.5" ry="125.5" fill="#F85F73"/>
<path d="M125.212 78.3701L128.012 74.2878L119.841 68.6797L117.041 72.7686C112.668 79.143 111.895 85.1937 112.773 90.2205C113.612 95.0691 115.931 98.5964 117.054 100.221L117.074 100.254C118.091 101.721 119.187 103.313 119.59 105.565C119.967 107.679 119.808 110.982 116.895 115.771L114.319 120.005L122.787 125.158L125.364 120.923C129.353 114.357 130.199 108.637 129.347 103.835C128.561 99.4089 126.394 96.3043 125.344 94.7916L125.199 94.5868C124.32 93.312 123.005 91.218 122.53 88.5229C122.094 85.9996 122.332 82.5779 125.212 78.3701ZM69.5397 138.151V138.164H62.4453C61.5779 138.164 60.7189 138.335 59.9175 138.667C59.116 138.999 58.3878 139.485 57.7745 140.099C57.1611 140.712 56.6745 141.44 56.3425 142.242C56.0106 143.043 55.8397 143.902 55.8397 144.77C55.8397 145.637 56.0106 146.496 56.3425 147.297C56.6745 148.099 57.1611 148.827 57.7745 149.44C58.3878 150.054 59.116 150.54 59.9175 150.872C60.7189 151.204 61.5779 151.375 62.4453 151.375H69.5397C69.5467 160.13 73.0296 168.524 79.2227 174.712C85.4159 180.901 93.8127 184.377 102.568 184.377H141.713C150.467 184.377 158.864 180.901 165.057 174.712C171.251 168.524 174.733 160.13 174.74 151.375H181.346C183.098 151.375 184.778 150.679 186.017 149.44C187.256 148.202 187.952 146.521 187.952 144.77C187.952 143.018 187.256 141.338 186.017 140.099C184.778 138.86 183.098 138.164 181.346 138.164H174.74V138.151H69.5397ZM96.3651 84.5662L93.5643 88.655C91.5496 91.5879 91.4373 93.8734 91.7213 95.4852C92.0318 97.2753 92.9103 98.6955 93.5511 99.6203L93.67 99.7855C94.4759 100.948 96.2528 103.491 96.9001 107.118C97.6003 111.081 96.8737 115.718 93.7162 120.923L91.14 125.151L82.6717 120.005L85.2478 115.778C87.3352 112.343 87.3682 110.13 87.1437 108.842C86.8794 107.408 86.1858 106.384 85.4064 105.261C83.6862 102.85 82.5097 100.093 81.9583 97.1828C81.2449 93.0676 81.8922 88.153 85.3932 83.0469L88.2006 78.9646L96.3651 84.5662ZM156.826 88.655L159.627 84.5662L151.456 78.9646L148.655 83.0469C145.154 88.153 144.5 93.0676 145.22 97.1828C145.907 101.126 147.783 103.987 148.668 105.261C149.448 106.384 150.141 107.408 150.399 108.848C150.623 110.13 150.597 112.349 148.503 115.771L145.927 120.005L154.402 125.158L156.978 120.923C160.136 115.718 160.862 111.081 160.155 107.118C159.638 104.464 158.534 101.959 156.925 99.7855L156.813 99.6203C155.912 98.3901 155.288 96.9794 154.983 95.4852C154.699 93.8734 154.811 91.5879 156.826 88.655Z" fill="#FAF2E9"/>
</svg>
