<svg width="247" height="251" viewBox="0 0 247 251" fill="none" xmlns="http://www.w3.org/2000/svg">
<ellipse cx="123.5" cy="125.5" rx="123.5" ry="125.5" fill="#F85F73"/>
<path fill-rule="evenodd" clip-rule="evenodd" d="M179.812 125.5C179.812 110.3 173.774 95.7221 163.026 84.9739C152.278 74.2258 137.7 68.1875 122.5 68.1875C107.3 68.1875 92.7221 74.2258 81.9739 84.9739C71.2258 95.7221 65.1875 110.3 65.1875 125.5V158.25H65.2694C65.7849 164.933 68.8033 171.174 73.7213 175.728C78.6392 180.282 85.0945 182.812 91.7969 182.812H92.4764C100.009 182.812 106.125 176.705 106.125 169.164V143.242C106.125 135.71 100.017 129.594 92.4764 129.594H91.7969C86.5241 129.594 81.6034 131.133 77.4688 133.769V125.5C77.4688 113.557 82.2131 102.103 90.6581 93.6581C99.1031 85.2131 110.557 80.4688 122.5 80.4688C134.443 80.4688 145.897 85.2131 154.342 93.6581C162.787 102.103 167.531 113.557 167.531 125.5V133.769C163.253 131.035 158.28 129.586 153.203 129.594H152.524C144.991 129.594 138.875 135.702 138.875 143.242V169.164C138.875 176.696 144.983 182.812 152.524 182.812H153.203C159.906 182.812 166.361 180.282 171.279 175.728C176.197 171.174 179.215 164.933 179.731 158.25H179.812V125.5ZM167.531 156.203C167.531 152.403 166.022 148.759 163.335 146.072C160.648 143.385 157.003 141.875 153.203 141.875H152.524C152.161 141.875 151.813 142.019 151.557 142.275C151.3 142.532 151.156 142.88 151.156 143.242V169.164C151.156 169.917 151.77 170.531 152.524 170.531H153.203C157.003 170.531 160.648 169.022 163.335 166.335C166.022 163.648 167.531 160.003 167.531 156.203ZM91.7969 170.531C87.9968 170.531 84.3524 169.022 81.6654 166.335C78.9783 163.648 77.4688 160.003 77.4688 156.203C77.4688 152.403 78.9783 148.759 81.6654 146.072C84.3524 143.385 87.9968 141.875 91.7969 141.875H92.4764C93.2297 141.875 93.8438 142.489 93.8438 143.242V169.164C93.8438 169.527 93.6997 169.874 93.4433 170.131C93.1869 170.387 92.8391 170.531 92.4764 170.531H91.7969Z" fill="#FAF2E9"/>
</svg>
