<svg width="247" height="251" viewBox="0 0 247 251" fill="none" xmlns="http://www.w3.org/2000/svg">
<ellipse cx="123.5" cy="125.5" rx="123.5" ry="125.5" fill="#F85F73"/>
<g clip-path="url(#clip0_12_59)">
<path d="M82.3125 76C77.0332 76 72.75 80.2832 72.75 85.5625V95.125H63.1875C61.4344 95.125 60 96.5594 60 98.3125C60 100.066 61.4344 101.5 63.1875 101.5H114.188C115.941 101.5 117.375 102.934 117.375 104.688C117.375 106.441 115.941 107.875 114.188 107.875H69.5625C67.8094 107.875 66.375 109.309 66.375 111.062C66.375 112.816 67.8094 114.25 69.5625 114.25H107.812C109.566 114.25 111 115.684 111 117.438C111 119.191 109.566 120.625 107.812 120.625H63.1875C61.4344 120.625 60 122.059 60 123.812C60 125.566 61.4344 127 63.1875 127H101.438C103.191 127 104.625 128.434 104.625 130.188C104.625 131.941 103.191 133.375 101.438 133.375H72.75V158.875C72.75 169.434 81.3164 178 91.875 178C102.434 178 111 169.434 111 158.875H136.5C136.5 169.434 145.066 178 155.625 178C166.184 178 174.75 169.434 174.75 158.875H181.125C184.651 158.875 187.5 156.026 187.5 152.5C187.5 148.974 184.651 146.125 181.125 146.125V123.275C181.125 119.888 179.79 116.641 177.4 114.25L162 98.8504C159.609 96.4598 156.362 95.125 152.975 95.125H142.875V85.5625C142.875 80.2832 138.592 76 133.312 76H82.3125ZM168.375 123.275V127H142.875V107.875H152.975L168.375 123.275ZM91.875 149.312C94.4111 149.312 96.8434 150.32 98.6367 152.113C100.43 153.907 101.438 156.339 101.438 158.875C101.438 161.411 100.43 163.843 98.6367 165.637C96.8434 167.43 94.4111 168.438 91.875 168.438C89.3389 168.438 86.9066 167.43 85.1133 165.637C83.32 163.843 82.3125 161.411 82.3125 158.875C82.3125 156.339 83.32 153.907 85.1133 152.113C86.9066 150.32 89.3389 149.312 91.875 149.312ZM146.062 158.875C146.062 156.339 147.07 153.907 148.863 152.113C150.657 150.32 153.089 149.312 155.625 149.312C158.161 149.312 160.593 150.32 162.387 152.113C164.18 153.907 165.188 156.339 165.188 158.875C165.188 161.411 164.18 163.843 162.387 165.637C160.593 167.43 158.161 168.438 155.625 168.438C153.089 168.438 150.657 167.43 148.863 165.637C147.07 163.843 146.062 161.411 146.062 158.875Z" fill="#FAF2E9"/>
</g>
<defs>
<clipPath id="clip0_12_59">
<rect width="127.5" height="102" fill="white" transform="translate(60 76)"/>
</clipPath>
</defs>
</svg>
